<?xml version="1.0" standalone="no"?><!DOCTYPE svg PUBLIC "-//W3C//DTD SVG 1.1//EN" "http://www.w3.org/Graphics/SVG/1.1/DTD/svg11.dtd"><svg t="1625205899293" class="icon" viewBox="0 0 1024 1024" version="1.1" xmlns="http://www.w3.org/2000/svg" p-id="3487" xmlns:xlink="http://www.w3.org/1999/xlink" width="200" height="200"><defs><style type="text/css"></style></defs><path d="M428.48 33.813333c27.52-29.44 72.213333-21.866667 107.2-13.653333 67.52 30.933333 95.68 106.88 111.573333 174.293333 10.026667 34.24 8.213333 72.64 26.773334 104 9.92-60.48 3.52-133.76 54.293333-177.813333 27.626667-27.413333 73.6-24.533333 103.786667-2.666667 50.986667 34.56 69.44 100.586667 69.866666 159.36 3.84 74.026667-17.813333 145.813333-36.906666 216.426667-8.32 32-26.666667 67.413333-7.573334 99.2 41.92 83.52 80.213333 173.653333 79.04 268.8-8.213333 10.133333-22.613333 10.986667-33.813333 16.426667-0.106667-77.44-18.453333-154.56-53.653333-223.466667-18.56-37.333333-39.36-78.08-28.693334-120.96 17.493333-90.026667 59.626667-177.706667 49.066667-271.466667-5.653333-45.44-19.413333-98.24-62.933333-121.706666-32.853333-17.173333-74.346667 6.4-80.32 42.026666-23.04 97.173333-28.48 197.546667-45.546667 295.786667-7.36 0.213333-22.08 0.746667-29.44 0.96-4.8-127.04-15.04-258.773333-72.96-374.186667-19.093333-41.066667-67.413333-73.386667-112.96-56.213333-43.52 23.36-43.626667 81.066667-28.8 122.133333 34.453333 114.56 99.306667 231.253333 65.173333 354.24-29.866667-58.666667-48.96-121.92-79.04-180.373333-32.213333-64-58.666667-135.893333-117.44-181.12-32.106667-24.426667-79.36-40.106667-116.8-18.88-29.653333 19.733333-26.56 63.573333-5.546666 88.533333 38.186667 47.68 96.746667 72.853333 138.133333 117.546667 30.4 29.546667 50.986667 67.306667 64.64 107.093333-48.106667 2.24-98.88-2.346667-143.893333 18.133334-62.4 26.773333-111.146667 86.186667-122.666667 153.28-4.586667 28.8 26.986667 44.373333 51.306667 44.266666 32.746667 4.693333 50.026667-29.546667 71.786666-47.573333 51.52-57.813333 152.64-49.92 200.32 8.853333 26.986667 31.04 40.746667 77.653333 21.653334 116.266667-15.04 34.133333-56.96 43.2-90.773334 41.066667-58.346667-3.52-102.613333-50.24-160-56.746667-26.88-3.84-45.12 19.093333-63.786666 34.133333 28.48 58.453333 86.826667 91.2 138.666666 125.973334 33.706667 20.693333 68.16 44.693333 108.48 48.853333 52.8-0.213333 103.36-29.866667 156.48-17.493333 31.893333 10.026667 53.44 37.653333 76.906667 59.84-11.733333 8-22.826667 16.96-33.6 26.24-17.066667-18.986667-29.226667-43.84-52.906667-55.786667-47.466667-7.36-90.666667 22.826667-138.026666 19.946667-59.2 3.2-108.48-34.666667-156.053334-64.426667-45.653333-32.96-95.146667-64.853333-126.08-113.066667-11.626667-36.8 12.373333-66.026667 35.52-91.413333-37.44-8.746667-82.666667-34.346667-77.333333-79.36 16.106667-85.866667 80.213333-161.493333 162.773333-190.506667 28.266667-9.173333 58.24-10.453333 87.36-15.786666-37.013333-74.773333-120.96-104.426667-173.44-165.013334-35.413333-38.826667-37.333333-112.96 13.12-140.266666 57.813333-35.413333 130.666667-6.506667 175.04 37.333333 53.653333 49.28 69.44 124.48 116.053334 178.88-26.666667-71.04-60.16-140.906667-70.933334-216.64 4.16-30.506667 11.946667-62.933333 36.906667-83.306667M224.96 700.266667c52.266667 13.44 97.066667 45.76 149.12 59.84 31.68 5.12 71.146667-20.373333 66.56-55.786667-13.226667-46.826667-58.133333-89.92-109.653333-83.2-49.493333-2.666667-81.493333 42.453333-106.026667 79.146667z" fill="#EEA851" p-id="3488"></path><path d="M465.28 48.96c45.546667-17.173333 93.866667 15.146667 112.96 56.213333 57.92 115.413333 68.16 247.146667 72.96 374.186667 7.36-0.213333 22.08-0.746667 29.44-0.96 17.066667-98.24 22.506667-198.613333 45.546667-295.786667 5.973333-35.626667 47.466667-59.2 80.32-42.026666 43.52 23.466667 57.28 76.266667 62.933333 121.706666 10.56 93.76-31.573333 181.44-49.066667 271.466667-10.666667 42.88 10.133333 83.626667 28.693334 120.96 35.2 68.906667 53.546667 146.026667 53.653333 223.466667-91.2 35.306667-180.906667 74.773333-272.64 108.8-23.466667-22.186667-45.013333-49.813333-76.906667-59.84-53.12-12.373333-103.68 17.28-156.48 17.493333-40.32-4.16-74.773333-28.16-108.48-48.853333-51.84-34.773333-110.186667-67.52-138.666666-125.973334 18.666667-15.04 36.906667-37.973333 63.786666-34.133333 57.386667 6.506667 101.653333 53.226667 160 56.746667 33.813333 2.133333 75.733333-6.933333 90.773334-41.066667 19.093333-38.613333 5.333333-85.226667-21.653334-116.266667-47.68-58.773333-148.8-66.666667-200.32-8.853333-21.76 18.026667-39.04 52.266667-71.786666 47.573333-24.32 0.106667-55.893333-15.466667-51.306667-44.266666 11.52-67.093333 60.266667-126.506667 122.666667-153.28 45.013333-20.48 95.786667-15.893333 143.893333-18.133334-13.653333-39.786667-34.24-77.546667-64.64-107.093333-41.386667-44.693333-99.946667-69.866667-138.133333-117.546667-21.013333-24.96-24.106667-68.8 5.546666-88.533333 37.44-21.226667 84.693333-5.546667 116.8 18.88 58.773333 45.226667 85.226667 117.12 117.44 181.12 30.08 58.453333 49.173333 121.706667 79.04 180.373333 34.133333-122.986667-30.72-239.68-65.173333-354.24-14.826667-41.066667-14.72-98.773333 28.8-122.133333z" fill="#FEDD76" p-id="3489"></path></svg>